<?xml version="1.0" encoding="UTF-8"?>
<svg id="Layer_1" data-name="Layer 1" xmlns="http://www.w3.org/2000/svg" viewBox="0 0 526.53 398.37">
  <defs>
    <style>
      .cls-1, .cls-2 {
        fill: #053322;
      }

      .cls-1, .cls-3 {
        stroke: #053322;
      }

      .cls-4 {
        fill: #d4e823;
      }

      .cls-3 {
        fill: none;
        stroke-linecap: round;
        stroke-width: 2px;
      }

      .cls-5 {
        fill: #001915;
      }

      .cls-6 {
        fill: #eeeae1;
        opacity: .29;
      }
    </style>
  </defs>
  <path class="cls-6" d="M77.01,371.2l-15.25,4.97c-1.98.64-3.31,2.49-3.31,4.56-.59,4.53,7.92,6.31,10.6,8.12,22.47,5.71,68.49,6.94,91.9,9.4,55.88.6,130.62-.67,185.98-8.7,0,0,17.88-5.05,17.88-5.05,3.09-.77,3.6-5.41.64-6.75-4.36-1.78-10.59-6.12-15.25-6.45-38.49-7.4-98.37-6.81-137.74-6.55-42.24-.22-93.6.09-135.43,6.45Z"/>
  <path class="cls-2" d="M356.43,350.27c.04,1.01,1.83,1.17,2,.12,0-.23-.39-.28-.75-.26-.36.03-.89-.06-1.18.06l-.07.08ZM357.52,344.75c.33.07.99.11.97-.28,0-.4.06-1.24-.06-1.29-.1-.08-.62.24-1.04.43-.6.19-.25.71,0,1.06l.12.07ZM327.52,359.7c.23.38,1.1.49,2.43.58,1.9.12,4.8.3,6.71.39,2.55.17,2.77-.42,1.69-2.52-.96-1.91-2.52-5.04-3.41-6.64-.84-1.57-1.51-1.45-2.52.02-1.11,1.56-2.74,4.04-3.83,5.64-.8,1.21-1.3,2.02-1.11,2.45l.04.07ZM357.51,350.15c1.19-.05.89-1.57.94-2.57-.08-.95.37-2.81-1-2.83-1.53.11-.85,2.19-1,3.35.02,1.03-.1,1.96.94,2.05h.12ZM357.86,344.08c-.09-.16-.32-.24-.69-.23-1.29.09-2.77.82-4.03,1.47-4.04,2.17-10.57,5.67-14.51,7.81-1.23.66-3.14,1.93-3.51,2.83-.34,2.78,10.59-4.24,12.26-4.9,2.54-1.37,5.05-2.71,6.95-3.75,2.52-1.38,3.77-2.67,3.55-3.2l-.02-.04Z"/>
  <path class="cls-3" d="M415.95,364.74c17.99-3.94,47.27-9.8,65.5-9"/>
  <path class="cls-5" d="M55.59,59.39c-.86-.69-2.13.47-1.51,1.45.23.28.63-.28.89-.55.21-.26.62-.59.64-.8l-.03-.1ZM69.45,74.24c-.01.06-.98.74-.56.91.34.28.53-.85.58-.9h-.02ZM94.88,82.68c.12-.46-.49-1.21-1.45-2.31-1.27-1.43-3.14-3.57-4.44-4.98-1.65-1.89-2.17-1.23-2.85.77-.71,2.12-1.93,5.62-2.41,7.35-.6,1.93.62,1.82,2.26,1.5,1.87-.36,4.7-.95,6.56-1.33,1.3-.28,2.14-.51,2.31-.93l.03-.08ZM54.34,59.66c-.55,2,4.64,5.72,6.51,7.86,1.46,1.09,8.47,9.35,9.28,6.98-.11-1.1-1.14-2.15-1.95-3.02-2.75-2.7-7.62-7.42-10.39-10.08-.95-.78-2.3-2.21-3.4-1.77l-.04.04ZM69.11,73.81c.3,2.16,5.49,3.05,7.92,4.22,1.58.36,10.07,4.65,9.59,1.9-.51-.95-1.84-1.52-2.9-1.96-3.08-1.16-8.11-3.05-11.1-4.15-1.09-.32-2.8-1.02-3.49-.07l-.02.06Z"/>
  <path class="cls-2" d="M18.95,16.63c-1.33.6-3.04.96-5.12,1.09-.35.02-.68-.1-.98-.38-.29-.27-.45-.58-.47-.91l-.59-9.3c-.04-.4-.08-.79-.12-1.19-.05-.45-.06-.83-.03-1.14.05-.55.54-.92,1.47-1.1.44-.16,1.17-.27,2.2-.33,1.11-.07,2.19.22,3.24.87,1.24.75,1.9,1.76,1.98,3,.04.67-.04,1.25-.26,1.73-.17.39-.48.81-.93,1.27.58.24,1.11.62,1.59,1.15.54.59.82,1.19.86,1.8.05.78-.33,1.54-1.13,2.29-.54.5-1.11.88-1.71,1.16ZM15.47,5.74c-.75.05-1.21.08-1.36.1l.13,1.86.11,1.84c.54.03.94.03,1.21-.01,1.78-.25,2.63-.97,2.56-2.14-.03-.42-.32-.8-.87-1.15-.57-.37-1.16-.53-1.78-.49ZM16.89,11.88c-.53.03-1.33.06-2.39.09l.21,3.28c1-.12,2.08-.38,3.24-.79,1.01-.36,1.5-.71,1.47-1.04-.05-.45-.4-.83-1.07-1.14-.52-.25-1-.38-1.45-.4ZM30.81,11.13c.02.39.07.98.12,1.77.06.79.1,1.38.12,1.77,0,.12.03.31.06.55.04.24.06.42.07.54.02.33-.08.6-.31.83-.22.23-.5.36-.85.38-.49.03-.85-.17-1.1-.59-.73.32-1.5.51-2.3.56-.83.05-1.54-.08-2.13-.39-.66-.36-1.08-.93-1.25-1.69-.32-1.45-.52-2.75-.59-3.9-.05-.76-.02-1.63.1-2.62.07-.67.45-1.02,1.12-1.07.34-.02.64.07.89.27.25.2.39.46.41.78.02.26,0,.66-.05,1.22-.05.55-.06.98-.04,1.26.05.82.12,1.55.22,2.16.1.61.21,1.11.35,1.51.15.06.29.1.43.12.14.03.28.04.41.03.65-.04,1.36-.18,2.12-.42-.03-.45-.06-.96-.11-1.53-.06-.68-.09-1.17-.11-1.47-.08-1.2-.09-2.24-.03-3.12.04-.7.42-1.07,1.13-1.12.35-.02.65.07.91.27.26.2.39.47.39.79.03,2.24.04,3.27.03,3.1ZM34.12,5.42c-.37.02-.71-.08-1-.32-.29-.23-.45-.53-.47-.89-.02-.36.09-.68.35-.95.26-.27.58-.42.95-.44.37-.02.7.08.99.32.29.23.45.53.47.89.02.36-.09.68-.35.95-.25.27-.57.41-.94.44ZM35.28,11.8c.02.33.06.87.13,1.6.07.74.12,1.27.14,1.6.02.34-.07.63-.29.86-.21.23-.5.36-.85.38-.35.02-.65-.07-.89-.27-.24-.21-.37-.48-.4-.82-.02-.33-.07-.87-.14-1.6-.06-.74-.11-1.27-.13-1.6-.03-.52-.05-1.17-.04-1.96,0-.79,0-1.44-.04-1.96-.02-.34.07-.62.29-.86.21-.24.5-.37.85-.39.35-.02.65.07.89.28.24.2.37.47.4.81.03.52.05,1.17.04,1.96,0,.79,0,1.44.04,1.96ZM40.45,14.31c.07,1.11-.3,1.69-1.1,1.74-.35.02-.65-.07-.89-.28s-.37-.49-.4-.84l-.77-12.13c-.02-.34.08-.62.32-.86.22-.21.5-.33.85-.35.35-.02.64.07.87.26.24.19.36.46.39.79l.74,11.66ZM48.5,8c-.12,0-.27.01-.44.02-.16,0-.31,0-.43,0-.24.02-.52.06-.83.12.26,2.36.41,3.9.45,4.62,0,.08.02.22.04.43.02.2.03.37.04.5.09,1.34-.3,2.04-1.14,2.1-.32.02-.61-.06-.85-.25-.27-.19-.42-.45-.44-.76-.01-.21-.02-.53-.03-.95,0-.42-.02-.74-.03-.95-.04-.71-.19-2.22-.45-4.53-.36,0-.92,0-1.66-.04-.74-.04-1.13-.39-1.17-1.07-.02-.33.07-.61.28-.85.21-.24.49-.37.84-.4.22-.01.72-.01,1.5.01-.02-.19-.05-.5-.1-.93-.05-.37-.08-.66-.09-.87-.02-.33.08-.61.31-.84.23-.23.51-.36.85-.38.87-.05,1.34.65,1.44,2.1l.03.72c.36-.08.65-.12.88-.14.67-.04,1.13-.03,1.39.04.48.13.73.48.77,1.03.02.33-.08.62-.29.86-.21.24-.5.37-.85.39ZM62.62,5.15c.78-.12,1.34-.19,1.68-.21,1.09-.07,1.66.27,1.71,1.02.05.77-.51,1.18-1.68,1.22-.37.01-.93.07-1.67.19.02.62.06,1.41.13,2.37.11,1.38.17,2.16.19,2.36.07,1.07.05,1.92-.04,2.56-.09.63-.46.97-1.1,1.01-.33.02-.62-.07-.88-.26-.25-.2-.39-.45-.41-.78,0-.08,0-.15,0-.22.09-.85.11-1.64.06-2.37l-.28-4.39c-.1.01-.3.05-.57.11-.22.04-.39.07-.51.08-.36.02-.66-.06-.91-.25-.25-.2-.38-.47-.4-.82-.03-.54.23-.92.79-1.12.25-.09.76-.17,1.53-.25,0-.11.02-.44.05-1,.08-1.31.37-2.31.88-2.98.63-.84,1.64-1.3,3.05-1.39,1.07-.07,1.63.28,1.68,1.05.05.76-.42,1.17-1.42,1.24-.71.04-1.21.33-1.5.84-.22.38-.34.97-.37,1.76v.26ZM71.81,14.13c-1.08.07-2.04-.24-2.86-.94-.91-.76-1.42-1.81-1.55-3.17-.12-1.29.16-2.46.84-3.52.81-1.25,2.01-1.92,3.6-2.03,1.17-.07,2.13.33,2.88,1.23.67.8,1.05,1.83,1.13,3.07.09,1.36-.2,2.54-.87,3.54-.74,1.12-1.8,1.73-3.17,1.81ZM71.87,6.8c-.72.04-1.27.4-1.64,1.09-.32.58-.45,1.24-.4,1.98.04.7.28,1.23.7,1.58.33.28.71.4,1.13.38.51-.03.94-.23,1.29-.6.4-.43.59-.99.58-1.68-.04-1.89-.6-2.8-1.66-2.74ZM84.57,6.45c0,.9-.37,1.37-1.13,1.42-.74.05-1.13-.31-1.18-1.07l-.1-.88c-1.3.29-2.2,1.03-2.7,2.21l.29,4.41c.02.33-.08.62-.29.85-.21.24-.5.37-.85.39-.36.02-.65-.08-.86-.3-.2-.2-.31-.46-.33-.79l-.37-5.75c-.01-.18-.02-.45-.03-.81-.01-.36-.02-.64-.03-.82-.02-.33.06-.61.24-.83.18-.23.46-.36.82-.39.65-.04,1.06.27,1.22.93.99-.84,2.11-1.3,3.37-1.38,1.17-.07,1.8.67,1.9,2.22.02.3.03.49.03.59Z"/>
  <path class="cls-2" d="M396.04,323.16c.04.29.05.76.03,1.4-.02.77-.39,1.2-1.12,1.29-.41.05-.9-.12-1.47-.51-2.5-1.72-5.39-4.22-8.68-7.49.16,1.51.27,2.44.31,2.79.06.46.16,1.15.3,2.07.14.92.25,1.61.31,2.07.22,1.71-.08,2.62-.92,2.73-.42.05-.78-.03-1.07-.26-.26-.2-.41-.47-.45-.8-.03-.23-.06-.59-.09-1.06-.02-.48-.05-.83-.08-1.06-.05-.34-.1-.86-.17-1.55-.07-.69-.12-1.2-.17-1.55-.05-.37-.13-.92-.24-1.65-.11-.74-.2-1.29-.24-1.65-.05-.35-.15-.86-.31-1.55-.16-.68-.26-1.2-.31-1.55-.05-.35.06-.68.32-.99.27-.31.59-.49.98-.54.43-.06.95.25,1.57.93,3.13,3.42,6.14,6.15,9.02,8.19-.02-.19-.07-.63-.17-1.33-.38-2.86-.66-4.79-.85-5.78-.03-.17-.11-.48-.24-.93-.11-.4-.18-.71-.21-.95-.11-.8.27-1.26,1.11-1.37.95-.12,1.61,1.27,1.99,4.2,0,.06.06.52.16,1.38.35,2.96.58,4.79.67,5.51ZM401.61,325.13c-1.07.14-2.05-.11-2.92-.74-.95-.7-1.54-1.72-1.76-3.06-.21-1.28,0-2.47.6-3.57.73-1.3,1.88-2.05,3.45-2.26,1.16-.15,2.15.19,2.95,1.03.72.76,1.17,1.75,1.33,2.99.18,1.35-.03,2.55-.63,3.59-.67,1.17-1.68,1.84-3.04,2.02ZM401.18,317.81c-.72.09-1.24.49-1.56,1.2-.28.6-.37,1.27-.27,2,.09.7.36,1.21.8,1.53.35.25.74.35,1.16.3.51-.07.92-.3,1.25-.69.37-.46.53-1.03.47-1.72-.17-1.88-.78-2.75-1.84-2.62ZM412.58,316.03c-.12.02-.27.03-.44.05-.16.01-.31.02-.43.04-.24.03-.51.09-.82.18.41,2.33.67,3.86.76,4.58.01.08.03.22.07.43.03.2.06.37.07.49.17,1.34-.16,2.06-1,2.17-.32.04-.61-.02-.87-.19-.28-.17-.45-.42-.49-.73-.03-.21-.06-.52-.1-.94-.04-.42-.07-.74-.1-.95-.09-.7-.34-2.2-.75-4.49-.36.03-.91.05-1.66.08-.74.01-1.15-.32-1.24-.99-.04-.33.03-.61.22-.87.19-.26.46-.41.81-.45.21-.03.71-.06,1.5-.09-.03-.18-.09-.49-.17-.92-.07-.37-.12-.65-.15-.86-.04-.33.04-.61.25-.86.21-.25.48-.39.82-.43.86-.11,1.38.55,1.57,2l.08.72c.35-.1.64-.16.87-.19.67-.09,1.13-.1,1.38-.05.49.1.77.42.84.97.04.33-.03.62-.23.87-.2.25-.47.4-.82.44ZM431.1,321.33c-.27.04-.73-.2-1.39-.7-.5.33-.95.58-1.34.76-.39.19-.73.3-1.01.34-1.4.18-2.5-.05-3.3-.71-.79-.66-1.29-1.73-1.49-3.23-.18-1.4.18-2.66,1.08-3.79.9-1.13,2.08-1.8,3.52-1.99.55-.07,1.21,0,1.98.22.93.26,1.42.64,1.49,1.14.03.21-.02.4-.13.58-.03.24-.04.54-.02.9.02.35.05.76.12,1.23.14,1.11.33,1.9.55,2.37.02.05.2.33.52.85.29.47.44.74.45.81.04.31-.04.58-.26.81-.21.23-.46.37-.77.41ZM428.16,315.63c-.02-.19-.04-.4-.05-.64,0-.25,0-.52.02-.83-.12-.04-.23-.07-.33-.08-.09-.02-.17-.02-.23-.01-.79.1-1.44.51-1.95,1.2-.51.69-.71,1.45-.61,2.26.1.78.32,1.35.65,1.7.33.35.77.49,1.33.42.36-.05.69-.15,1-.31.31-.17.59-.38.85-.65-.36-1.36-.58-2.38-.67-3.07ZM451.3,310.29c-.31,2.36-.65,4.51-1.03,6.45-.11.55-.32,1.12-.64,1.72-.23.42-.58.66-1.04.71-.73.08-1.4-.55-2-1.89-.23-.51-.54-1.49-.95-2.92-.09.27-.14.45-.16.54-.21.76-.5,1.94-.89,3.53-.06.26-.16.47-.32.64-.19.42-.53.67-1.01.75-.27.05-.59-.16-.96-.62-.39-.46-.73-1.08-1.03-1.85-.27-.7-.76-2.23-1.45-4.6-.15-.51-.24-.92-.28-1.21-.04-.32.04-.6.25-.84.22-.25.49-.39.83-.44.63-.08,1.05.18,1.28.78.12.31.23.71.35,1.18.16.68.26,1.08.29,1.2.14.44.35,1.17.64,2.18.27-1.23.58-2.77.9-4.6.14-.79.54-1.22,1.19-1.31.65-.08,1.12.28,1.44,1.1.22.57.48,1.32.76,2.25.42,1.35.67,2.14.76,2.4.03-.19.25-2.01.67-5.48.06-.52.39-.81.99-.89.33-.04.64.03.91.21.28.18.45.43.49.75,0,.06,0,.14-.01.26ZM459.86,310.59c.06.9-.28,1.39-1.04,1.49-.73.1-1.15-.23-1.25-.99l-.16-.88c-1.28.38-2.13,1.17-2.54,2.38l.58,4.38c.04.33-.03.62-.23.86-.2.25-.47.4-.82.44-.36.05-.65-.03-.88-.24-.21-.18-.34-.44-.38-.76l-.75-5.71c-.02-.18-.05-.45-.09-.8-.04-.36-.07-.63-.09-.81-.04-.32.02-.61.18-.85.17-.25.43-.39.79-.44.64-.08,1.07.2,1.28.84.93-.9,2.02-1.43,3.27-1.6,1.16-.15,1.85.54,2.05,2.09.04.3.06.49.07.58ZM469.55,316.29c-.27.04-.73-.2-1.39-.71-.5.33-.95.58-1.34.76-.39.19-.73.3-1.01.34-1.4.18-2.5-.05-3.3-.71-.8-.66-1.29-1.73-1.49-3.23-.18-1.4.18-2.66,1.08-3.79.9-1.14,2.07-1.8,3.52-1.99.55-.07,1.21,0,1.98.22.93.26,1.42.64,1.49,1.14.03.21-.02.4-.13.58-.03.24-.04.54-.02.9.02.35.05.76.12,1.24.14,1.11.33,1.9.55,2.37.02.05.2.33.52.85.29.47.44.74.45.81.04.31-.04.58-.26.81-.21.23-.46.37-.77.41ZM466.61,310.6c-.02-.19-.04-.4-.05-.64,0-.25,0-.52.02-.83-.12-.04-.23-.07-.33-.08-.09-.02-.17-.02-.23-.01-.79.1-1.44.5-1.95,1.2-.51.69-.71,1.45-.61,2.26.1.78.32,1.35.65,1.71.33.35.77.49,1.33.42.36-.05.69-.15,1-.31.31-.16.59-.38.85-.65-.36-1.36-.58-2.38-.67-3.07ZM475.96,315.39c-.5.07-1.03.08-1.6.03l.46,3.56c.04.34-.03.63-.23.88-.2.25-.47.4-.82.44-.35.05-.65-.03-.91-.22-.26-.19-.41-.46-.45-.79-.04-.27-.17-1.36-.41-3.25-.17-1.41-.32-2.55-.45-3.44-.18-1.25-.36-2.33-.55-3.23-.25-1.24-.37-1.8-.36-1.7-.06-.48,0-.91.16-1.28.2-.42.51-.66.93-.72.33-.04.61.03.86.22.25.19.4.44.43.75v.09c.36-.27.73-.49,1.11-.64.38-.16.77-.27,1.16-.32,1.34-.17,2.39.26,3.15,1.32.57.79.94,1.87,1.12,3.23.17,1.27-.06,2.37-.67,3.31-.66,1-1.64,1.59-2.95,1.76ZM475.62,308.11c-.37.05-.73.18-1.08.41-.36.22-.7.52-1.04.92.23,1.19.42,2.38.58,3.59.54.1,1.07.12,1.58.05.6-.08,1.03-.35,1.29-.82.24-.42.32-.96.23-1.61-.1-.78-.21-1.32-.32-1.62-.26-.69-.68-.99-1.25-.92ZM485.52,314.14c-.5.07-1.03.08-1.6.03l.46,3.56c.04.34-.03.63-.23.88-.2.25-.47.4-.82.44-.35.05-.65-.03-.91-.22-.26-.19-.4-.45-.45-.79-.04-.27-.17-1.36-.41-3.25-.17-1.41-.32-2.55-.45-3.44-.18-1.25-.36-2.33-.55-3.23-.25-1.24-.37-1.8-.36-1.7-.06-.48,0-.91.16-1.28.2-.42.51-.66.93-.72.33-.04.61.03.86.22.25.19.39.44.43.75v.09c.36-.27.73-.48,1.11-.64.38-.16.77-.27,1.16-.32,1.34-.18,2.39.26,3.15,1.32.57.79.95,1.87,1.12,3.23.17,1.27-.06,2.38-.67,3.31-.66,1-1.65,1.59-2.95,1.76ZM485.17,306.86c-.37.05-.73.18-1.08.41-.36.22-.7.52-1.04.92.23,1.19.42,2.38.58,3.58.54.1,1.07.12,1.58.05.6-.08,1.03-.35,1.29-.82.24-.42.32-.96.23-1.61-.1-.78-.21-1.32-.32-1.62-.26-.69-.68-.99-1.25-.92ZM495.42,312.73c-1.39.18-2.57,0-3.54-.55-1.07-.6-1.7-1.57-1.87-2.9-.19-1.47.03-2.76.67-3.88.71-1.24,1.8-1.96,3.26-2.15,1.01-.13,1.87-.08,2.58.16.93.32,1.46.93,1.58,1.83.08.64-.2,1.25-.85,1.84-.29.27-.9.69-1.83,1.25l-2.77,1.68c.32.27.68.45,1.1.55.41.1.88.12,1.39.05.78-.1,1.42-.35,1.92-.74.44-.35.81-.54,1.1-.58.6-.08.94.17,1.02.76.09.66-.33,1.27-1.24,1.81-.77.45-1.61.74-2.52.86ZM494.21,305.36c-.54.07-.98.31-1.32.72-.34.41-.57.99-.71,1.74.62-.37,1.24-.74,1.85-1.1.74-.46,1.32-.87,1.75-1.23-.42-.17-.94-.21-1.57-.13ZM507.44,304.36c.06.9-.28,1.39-1.04,1.49-.73.1-1.15-.23-1.25-.99l-.16-.87c-1.28.38-2.13,1.17-2.54,2.38l.58,4.38c.04.33-.03.62-.23.86-.2.25-.47.4-.82.44-.36.05-.65-.03-.88-.24-.21-.18-.34-.44-.38-.77l-.75-5.71c-.02-.18-.05-.45-.09-.8-.04-.36-.07-.63-.09-.81-.04-.33.02-.61.18-.85.17-.25.43-.39.79-.44.64-.09,1.07.2,1.28.84.93-.9,2.02-1.43,3.27-1.6,1.16-.15,1.84.54,2.05,2.09.04.3.06.49.07.58ZM512.61,310.99c-.39.05-.74-.03-1.06-.23-.32-.2-.49-.45-.53-.76-.04-.31.07-.6.32-.88.25-.29.57-.46.96-.51.41-.05.77.02,1.07.21.3.2.47.46.51.8.04.31-.06.6-.31.87-.25.28-.57.44-.96.49Z"/>
  <path class="cls-2" d="M382.3,353.7c-.46.04-.99-.45-1.58-1.45-.39-.65-.75-1.41-1.08-2.28-.42.12-1.12.27-2.09.45-.91.18-1.61.34-2.08.48-.19.67-.54,1.69-1.05,3.06-.2.45-.54.7-.99.76-.32.04-.62-.03-.9-.22-.28-.19-.45-.45-.49-.79-.04-.3.27-1.36.91-3.17-.1-.17-.16-.33-.17-.49-.01-.28.24-.54.77-.76.65-1.53,1.39-3.13,2.22-4.79,1.19-2.38,1.95-3.59,2.29-3.63.64-.08,1.11.26,1.42,1.01.19.61.49,1.52.89,2.73.56,1.63,1.22,3.5,2,5.59.06.16.26.52.58,1.1.27.48.42.84.45,1.09.04.34-.05.64-.28.89-.22.26-.49.4-.82.43ZM377.96,345.14c-.36.83-.85,1.97-1.49,3.41.26-.09.66-.19,1.2-.29.65-.12,1.05-.2,1.22-.24-.23-.74-.54-1.7-.93-2.88ZM400.02,351.91c-.72.09-1.16-.22-1.32-.91-.15-.59-.31-1.18-.46-1.78-.17-.63-.28-1.23-.35-1.79-.02-.15-.04-.41-.07-.78-.02-.37-.04-.63-.06-.78,0-.04-.01-.14-.02-.31,0-.17-.02-.31-.03-.41-.06-.48-.21-.71-.46-.68-.54.07-1.02.44-1.46,1.13-.44.68-.74,1.52-.92,2.52.01.19.02.45.02.78,0,.27.01.52.04.77.02.16.07.41.14.73.08.32.13.56.15.73.04.33-.04.62-.25.86-.2.25-.47.39-.82.44-.35.04-.65-.03-.9-.23-.25-.19-.4-.45-.44-.78-.02-.16-.07-.4-.14-.73-.08-.33-.12-.57-.14-.74-.07-.56-.12-1.34-.16-2.34-.04-1.01-.09-1.79-.16-2.35-.02-.17-.06-.43-.13-.77-.06-.35-.1-.6-.12-.77-.04-.33.04-.61.25-.85.21-.24.49-.39.83-.43.76-.09,1.22.32,1.39,1.22l.02.09c.74-.96,1.59-1.49,2.53-1.61,1.1-.13,1.92.23,2.45,1.1.35.58.61,1.49.76,2.71l.07.62c.03.27.05.46.06.57.05.45.19,1.03.4,1.73.21.7.35,1.27.4,1.72.04.33-.04.61-.25.85-.21.24-.48.39-.82.43ZM406.87,350.86c-1.39.17-2.57-.03-3.53-.58-1.07-.61-1.68-1.59-1.84-2.92-.18-1.47.06-2.76.71-3.88.72-1.23,1.82-1.94,3.27-2.12,1.01-.12,1.87-.06,2.58.18.93.32,1.45.94,1.56,1.85.08.64-.21,1.25-.87,1.83-.3.27-.91.68-1.84,1.23l-2.78,1.66c.32.27.68.45,1.1.56.41.1.88.12,1.39.06.78-.1,1.42-.33,1.92-.72.45-.34.82-.53,1.11-.57.6-.07.94.18,1.01.77.08.66-.34,1.26-1.26,1.8-.77.45-1.61.73-2.53.84ZM405.73,343.48c-.54.07-.98.3-1.32.71-.34.41-.58.98-.73,1.73.62-.36,1.24-.73,1.86-1.08.74-.45,1.33-.86,1.76-1.21-.42-.17-.94-.22-1.57-.15ZM422.64,340.73c-.33,2.35-.7,4.5-1.09,6.44-.11.54-.33,1.12-.66,1.72-.23.42-.58.65-1.05.7-.74.08-1.4-.56-1.99-1.91-.22-.52-.53-1.49-.92-2.93-.09.27-.15.45-.16.54-.21.76-.52,1.93-.92,3.52-.06.25-.17.46-.32.63-.2.42-.54.67-1.02.74-.27.04-.59-.16-.95-.63-.38-.47-.72-1.09-1.01-1.86-.27-.7-.74-2.24-1.41-4.61-.15-.51-.24-.92-.27-1.21-.04-.32.05-.6.26-.84.22-.25.5-.39.83-.43.63-.08,1.05.19,1.27.79.12.32.23.71.34,1.18.15.68.25,1.08.28,1.2.13.44.34,1.17.62,2.18.29-1.23.6-2.76.95-4.59.15-.79.55-1.22,1.21-1.3.65-.08,1.12.29,1.43,1.11.22.58.46,1.33.74,2.26.41,1.35.65,2.15.74,2.41.03-.19.27-2.01.73-5.47.07-.52.4-.81,1-.88.33-.04.64.03.91.22.28.18.44.44.48.76,0,.06,0,.14-.01.26ZM435.46,337.89c.77-.16,1.33-.27,1.66-.31,1.09-.13,1.68.17,1.77.92.09.77-.44,1.2-1.6,1.31-.37.03-.92.13-1.66.28.05.62.14,1.4.27,2.36.19,1.37.3,2.15.32,2.34.13,1.06.16,1.92.11,2.55-.06.64-.4,1-1.04,1.07-.33.04-.62-.03-.89-.21-.26-.18-.42-.43-.45-.75,0-.08-.01-.15,0-.22.04-.85.01-1.64-.07-2.37l-.53-4.36c-.1.02-.29.07-.57.14-.22.06-.38.09-.5.11-.35.04-.66-.02-.92-.2-.26-.18-.41-.45-.45-.79-.07-.54.18-.93.73-1.17.25-.11.75-.22,1.51-.33,0-.11,0-.44,0-1,0-1.32.24-2.32.7-3.02.58-.87,1.57-1.39,2.96-1.56,1.07-.13,1.64.19,1.74.95.09.76-.36,1.2-1.35,1.32-.7.08-1.18.39-1.45.93-.19.4-.28.99-.27,1.78v.26ZM445.15,346.32c-1.08.13-2.05-.13-2.91-.77-.95-.7-1.52-1.73-1.73-3.08-.2-1.28.02-2.47.64-3.57.74-1.29,1.9-2.04,3.47-2.23,1.16-.14,2.15.21,2.94,1.06.72.76,1.15,1.76,1.3,3,.16,1.35-.06,2.55-.66,3.59-.68,1.16-1.7,1.83-3.06,1.99ZM444.79,339c-.72.08-1.24.48-1.57,1.18-.28.6-.38,1.26-.29,2,.08.7.35,1.21.79,1.53.35.26.74.36,1.15.31.51-.06.92-.29,1.26-.67.38-.45.54-1.02.48-1.71-.15-1.88-.76-2.76-1.82-2.64ZM457.93,339.13c.05.39.12.98.22,1.76.1.78.18,1.37.22,1.76.01.12.05.3.09.55.05.24.08.41.1.54.04.33-.05.61-.26.85-.21.24-.48.39-.82.43-.48.06-.86-.12-1.14-.53-.71.36-1.46.59-2.26.69-.83.1-1.54.01-2.15-.27-.68-.32-1.13-.86-1.35-1.62-.4-1.43-.68-2.71-.81-3.86-.09-.76-.11-1.63-.05-2.62.04-.67.39-1.05,1.06-1.13.34-.04.64.03.9.22.26.18.42.43.46.76.03.26.04.66.02,1.22-.02.56,0,.98.03,1.26.1.82.21,1.54.34,2.15.13.6.28,1.1.44,1.49.15.05.3.08.44.1.14.02.28.02.41,0,.65-.08,1.34-.26,2.1-.54-.05-.45-.12-.96-.19-1.52-.09-.68-.16-1.17-.2-1.46-.15-1.19-.21-2.23-.21-3.11,0-.7.36-1.1,1.06-1.18.34-.04.65.03.92.22.27.18.42.44.44.77.16,2.23.23,3.26.21,3.09ZM467.15,343.76c-.72.09-1.16-.22-1.32-.91-.15-.59-.31-1.18-.46-1.78-.16-.63-.28-1.23-.35-1.79-.02-.15-.04-.41-.07-.78-.02-.37-.04-.63-.06-.78,0-.04-.01-.14-.02-.31,0-.17-.02-.31-.03-.41-.06-.48-.21-.71-.46-.68-.54.07-1.02.44-1.46,1.13-.44.68-.74,1.52-.92,2.52.01.19.02.45.02.78,0,.27.01.52.04.78.02.16.07.41.14.73.08.32.13.56.15.73.04.33-.04.62-.25.86-.2.25-.48.39-.82.44-.35.04-.65-.03-.9-.23-.25-.19-.4-.45-.44-.78-.02-.16-.07-.4-.14-.73-.08-.33-.12-.57-.14-.73-.07-.56-.12-1.34-.16-2.34-.04-1.01-.09-1.79-.16-2.35-.02-.17-.06-.43-.13-.77-.06-.35-.1-.61-.12-.77-.04-.33.04-.61.25-.85.21-.24.49-.39.83-.43.76-.09,1.22.31,1.39,1.22l.02.1c.74-.96,1.59-1.49,2.53-1.61,1.1-.13,1.91.23,2.45,1.1.35.58.61,1.49.75,2.71l.08.62c.03.27.05.46.06.57.05.45.19,1.03.4,1.73.21.7.35,1.27.4,1.72.04.33-.04.61-.25.85-.21.24-.48.39-.82.43ZM474.87,333.29c-.17-1.99-.24-3.37-.23-4.14.02-.7.35-1.09,1.01-1.17.34-.04.63.04.87.23.24.2.37.45.41.77.1.84.19,2.11.26,3.79.07,1.68.16,2.95.27,3.79.25,2.06.48,3.43.7,4.11.03.09.05.17.06.25.04.32-.05.6-.25.84-.21.23-.47.37-.77.4-.43.05-.77-.1-1.03-.46-.37.29-.76.51-1.17.68-.41.17-.84.29-1.29.34-1.3.16-2.43-.13-3.4-.85-.98-.74-1.55-1.77-1.71-3.09-.19-1.56.1-2.88.87-3.95.77-1.07,1.86-1.7,3.29-1.87.44-.05.83-.05,1.19,0,.35.05.67.15.94.31ZM475.03,336.06c-.24-.34-.52-.59-.85-.73-.33-.14-.71-.19-1.13-.14-.86.1-1.48.43-1.85.99-.37.55-.49,1.32-.38,2.31.08.63.38,1.14.89,1.53.52.39,1.09.55,1.71.48.45-.05.78-.15,1-.28.15-.09.39-.31.73-.66.09-.09.17-.2.26-.31-.05-.28-.18-1.34-.39-3.19ZM487.65,341.23c-.27.03-.73-.21-1.38-.72-.5.32-.95.57-1.34.75-.39.18-.73.29-1.01.33-1.4.17-2.5-.08-3.29-.74-.79-.67-1.28-1.75-1.46-3.24-.17-1.4.2-2.66,1.12-3.78.91-1.13,2.09-1.78,3.53-1.95.55-.07,1.21.01,1.98.24.92.27,1.42.66,1.48,1.16.03.21-.02.4-.13.57-.03.24-.04.54-.03.9.01.35.05.76.1,1.23.14,1.11.31,1.9.53,2.37.02.05.2.34.51.86.29.47.43.74.44.81.04.31-.05.58-.26.81-.21.23-.47.37-.77.4ZM484.76,335.5c-.02-.19-.04-.4-.04-.64,0-.25,0-.52.02-.83-.12-.04-.23-.07-.33-.08-.09-.02-.17-.02-.23-.02-.79.1-1.45.49-1.96,1.19-.52.69-.73,1.44-.63,2.26.1.78.31,1.35.63,1.71.33.36.77.5,1.33.43.36-.04.69-.14,1-.3.31-.16.6-.38.85-.64-.34-1.36-.56-2.39-.64-3.07ZM495.29,332.59c-.12.02-.27.03-.44.04-.16,0-.31.02-.43.04-.24.03-.51.08-.82.17.39,2.34.63,3.87.72,4.59,0,.08.03.22.06.43.03.2.05.37.07.5.16,1.34-.18,2.06-1.02,2.16-.32.04-.61-.03-.87-.2-.28-.18-.44-.42-.48-.74-.03-.21-.05-.52-.09-.95-.03-.42-.06-.74-.09-.95-.09-.7-.32-2.2-.71-4.5-.36.03-.92.05-1.66.06-.74,0-1.15-.33-1.23-1-.04-.33.04-.62.23-.87.19-.25.46-.4.81-.44.21-.03.71-.05,1.5-.08-.03-.18-.08-.49-.16-.92-.07-.37-.11-.66-.14-.86-.04-.33.05-.61.26-.86.21-.24.49-.39.82-.43.86-.1,1.38.57,1.56,2.02l.07.72c.35-.1.64-.16.87-.19.67-.08,1.13-.09,1.39-.03.48.11.76.43.83.98.04.33-.04.62-.24.87-.2.25-.47.39-.82.44ZM499.13,328.61c-.37.04-.71-.04-1.01-.26-.3-.22-.48-.51-.52-.87-.04-.36.06-.68.3-.97.24-.28.55-.45.92-.49.37-.05.71.04,1.01.26.3.22.48.51.52.87.04.36-.06.68-.3.97-.24.28-.54.45-.91.49ZM500.65,334.91c.04.33.11.86.22,1.59.11.73.19,1.26.23,1.59.04.34-.04.63-.24.88-.2.24-.47.39-.82.43-.35.04-.65-.03-.9-.22-.25-.19-.4-.46-.44-.8-.04-.33-.12-.86-.23-1.59-.11-.73-.18-1.26-.22-1.59-.06-.52-.11-1.17-.15-1.96-.04-.79-.09-1.44-.15-1.96-.04-.34.04-.63.24-.87.2-.25.47-.39.82-.44.35-.04.65.03.9.23.25.19.4.45.44.79.06.52.11,1.17.15,1.96.04.79.09,1.44.15,1.96ZM507.08,338.8c-1.08.13-2.05-.13-2.91-.77-.95-.7-1.52-1.73-1.73-3.07-.2-1.28.02-2.47.64-3.57.74-1.29,1.9-2.04,3.47-2.23,1.16-.14,2.14.21,2.94,1.06.72.76,1.15,1.76,1.3,3,.16,1.35-.06,2.54-.66,3.59-.68,1.16-1.7,1.83-3.06,1.99ZM506.72,331.48c-.72.08-1.24.48-1.57,1.18-.28.6-.38,1.26-.29,2,.08.7.35,1.21.79,1.53.35.26.74.36,1.15.31.51-.06.92-.29,1.26-.68.38-.45.54-1.02.48-1.71-.15-1.88-.76-2.76-1.82-2.64ZM519.78,337.37c-.72.09-1.16-.22-1.32-.91-.16-.59-.31-1.18-.46-1.78-.17-.63-.28-1.23-.35-1.79-.02-.15-.04-.41-.07-.78-.02-.37-.04-.63-.06-.78,0-.04-.01-.14-.02-.31,0-.17-.02-.31-.03-.41-.06-.48-.21-.71-.46-.68-.53.07-1.02.44-1.46,1.13-.44.68-.74,1.52-.91,2.52.01.19.02.45.01.78,0,.27.01.52.04.77.02.16.07.41.14.74.08.32.13.56.15.73.04.33-.04.62-.25.86-.2.25-.47.39-.82.44-.35.04-.65-.03-.9-.23-.25-.19-.4-.45-.44-.78-.02-.16-.07-.4-.14-.73-.07-.33-.12-.57-.14-.74-.07-.56-.12-1.34-.16-2.34-.04-1.01-.09-1.79-.16-2.35-.02-.17-.07-.43-.13-.77-.06-.35-.1-.6-.12-.77-.04-.33.04-.61.25-.85.21-.24.49-.39.83-.43.76-.09,1.22.32,1.39,1.22l.02.1c.74-.96,1.59-1.49,2.53-1.61,1.1-.13,1.91.23,2.44,1.1.35.58.61,1.49.76,2.71l.08.62c.03.27.05.46.06.57.05.45.19,1.03.4,1.73.21.7.35,1.27.4,1.72.04.33-.04.61-.25.85-.21.24-.48.39-.83.43ZM525.25,337c-.39.05-.74-.03-1.06-.24-.31-.2-.49-.46-.53-.76-.04-.31.07-.6.33-.88.25-.29.58-.45.97-.5.41-.05.77.03,1.06.23.29.2.46.47.51.81.04.31-.07.6-.32.87-.25.27-.57.43-.96.48Z"/>
  <path class="cls-2" d="M10.25,47.75c-.46.06-1.01-.39-1.66-1.37-.42-.63-.82-1.37-1.2-2.22-.42.14-1.1.32-2.06.56-.9.22-1.59.42-2.06.59-.15.68-.45,1.72-.89,3.11-.18.46-.5.73-.95.81-.32.06-.62,0-.91-.17-.29-.18-.47-.43-.53-.76-.05-.29.2-1.37.74-3.22-.11-.16-.18-.33-.19-.48-.03-.28.22-.55.73-.8.57-1.56,1.23-3.19,1.97-4.89,1.06-2.44,1.76-3.69,2.09-3.75.63-.11,1.13.2,1.47.93.22.6.57,1.49,1.03,2.68.64,1.6,1.4,3.43,2.29,5.48.07.15.28.51.64,1.07.29.46.46.81.51,1.06.06.33-.02.64-.23.91-.21.27-.47.42-.79.47ZM5.47,39.43c-.32.85-.75,2.01-1.31,3.48.25-.1.65-.22,1.19-.35.64-.15,1.04-.26,1.2-.31-.27-.73-.63-1.67-1.08-2.83ZM18.86,35.43c-.3.05-1.14.11-2.51.19.1,1.08.31,2.49.62,4.25l.67,3.89c.76-.15,1.55-.3,2.34-.44.35-.06.65,0,.92.2.27.19.43.45.49.77.06.32-.01.62-.2.89-.19.26-.45.43-.8.49-.32.06-.81.15-1.45.28-.64.12-1.13.21-1.45.27-.38.07-.94.22-1.69.45-.74.24-1.31.39-1.69.45-.35.06-.65,0-.92-.19-.27-.19-.43-.45-.48-.77s0-.62.19-.89c.19-.27.46-.44.81-.5.39-.07.9-.2,1.53-.4-.13-.68-.36-1.98-.7-3.91-.27-1.57-.48-3.08-.61-4.52l-1.87.38c-.35.06-.66,0-.93-.19-.27-.18-.43-.44-.49-.78-.06-.34,0-.64.2-.89.18-.23.42-.39.73-.48.5-.13,1.38-.31,2.64-.53,1.13-.2,2.61-.33,4.44-.4.73-.03,1.15.31,1.27,1.01.06.37-.03.69-.28.95-.21.22-.46.36-.76.41ZM40.37,34.37c-.21,2.37-.46,4.53-.75,6.48-.08.55-.27,1.13-.57,1.75-.21.43-.55.68-1.01.76-.73.12-1.42-.49-2.08-1.81-.25-.5-.61-1.46-1.07-2.87-.08.28-.12.46-.14.55-.18.77-.42,1.96-.73,3.56-.04.26-.14.47-.29.65-.17.43-.5.69-.98.79-.27.06-.6-.13-.98-.58-.41-.45-.77-1.05-1.11-1.81-.3-.68-.85-2.19-1.65-4.53-.17-.51-.28-.91-.33-1.2-.06-.32.02-.6.22-.85.21-.26.48-.41.81-.47.62-.11,1.06.13,1.31.73.13.31.26.7.4,1.16.19.67.3,1.06.34,1.18.15.44.4,1.15.73,2.15.22-1.25.46-2.79.71-4.63.11-.79.48-1.24,1.14-1.36.64-.11,1.14.23,1.48,1.03.25.56.53,1.3.86,2.21.48,1.33.76,2.12.86,2.37.02-.19.17-2.02.44-5.5.04-.52.36-.83.95-.93.33-.06.64,0,.92.17.29.17.46.41.52.73.01.06.01.14,0,.26ZM46.42,41.7c-1.07.19-2.05-.02-2.95-.62-.98-.66-1.61-1.65-1.89-2.98-.26-1.27-.11-2.47.45-3.59.67-1.33,1.79-2.13,3.35-2.41,1.15-.2,2.15.1,2.99.91.76.72,1.24,1.7,1.46,2.93.23,1.34.08,2.54-.48,3.62-.62,1.2-1.6,1.91-2.95,2.15ZM45.68,34.4c-.71.12-1.21.54-1.51,1.26-.25.61-.31,1.28-.18,2.01.12.69.41,1.19.87,1.49.36.24.75.32,1.17.25.5-.09.91-.33,1.22-.74.35-.47.48-1.05.39-1.74-.25-1.87-.9-2.72-1.95-2.54ZM58.26,32.67c.1.89-.22,1.4-.97,1.53-.73.13-1.16-.18-1.29-.94l-.2-.87c-1.26.43-2.08,1.26-2.44,2.49l.77,4.35c.06.33,0,.62-.2.87-.19.26-.45.42-.8.48-.36.06-.66,0-.89-.2-.22-.18-.36-.43-.42-.75l-.99-5.67c-.03-.18-.07-.45-.12-.8-.05-.36-.09-.63-.12-.81-.06-.32,0-.61.15-.85.16-.25.42-.41.77-.47.64-.11,1.08.15,1.32.79.89-.94,1.96-1.52,3.2-1.74,1.15-.2,1.87.47,2.13,2,.05.29.08.49.09.58ZM67.96,37.78c-.46.08-.84-.08-1.15-.48-.37-.48-.91-1.02-1.6-1.64-1.07-.96-1.64-1.47-1.7-1.53-.4.42-.74.75-1.01.98.08.81.19,1.59.32,2.32.06.33,0,.63-.19.89-.19.26-.45.42-.8.48-.81.14-1.31-.27-1.47-1.24-.08-.46-.17-1.14-.26-2.06-.09-.92-.17-1.61-.25-2.07-.15-.84-.3-1.79-.47-2.87-.16-1.08-.31-2.04-.46-2.86-.04-.25-.11-.54-.2-.87-.08-.34-.15-.63-.19-.88-.06-.33,0-.63.19-.88.19-.26.45-.42.8-.48s.65,0,.91.18c.26.17.42.43.48.76.04.25.11.55.2.89.09.34.16.64.2.89.12.69.24,1.5.37,2.45.12.91.25,1.71.38,2.41.68-.74,1.68-2.05,3.01-3.93.21-.3.48-.48.8-.53.32-.06.63.01.92.21.29.19.46.45.52.76.05.27-.02.54-.2.83-.55.88-1.22,1.82-2.02,2.81l2.21,2.01c1.07,1.01,1.64,1.71,1.71,2.09.06.32-.02.61-.24.87-.21.27-.48.43-.81.49ZM72.75,27.42c.76-.2,1.31-.34,1.64-.39,1.08-.19,1.68.09,1.81.83.13.76-.38,1.23-1.53,1.39-.37.05-.91.17-1.64.37.08.62.21,1.4.39,2.34.26,1.36.41,2.13.44,2.32.18,1.06.26,1.9.24,2.55-.03.64-.35,1.02-.98,1.13-.32.06-.62,0-.9-.16-.27-.17-.44-.41-.49-.73-.01-.08-.02-.15-.02-.22,0-.85-.07-1.64-.2-2.37l-.75-4.33c-.1.02-.29.08-.56.17-.21.07-.38.11-.49.13-.35.06-.66.01-.93-.15-.27-.17-.43-.42-.49-.77-.09-.54.13-.94.66-1.2.24-.12.74-.26,1.49-.41-.01-.1-.03-.44-.06-1-.06-1.32.12-2.33.55-3.06.53-.9,1.49-1.47,2.88-1.72,1.06-.18,1.65.1,1.78.86.13.75-.29,1.21-1.28,1.38-.7.12-1.16.46-1.4,1-.17.4-.23,1-.18,1.79l.02.26ZM81.66,33.71c.19,1.1-.11,1.71-.91,1.85-.35.06-.65,0-.91-.18-.26-.18-.43-.44-.49-.79l-2.09-11.97c-.06-.33.01-.63.22-.89.2-.24.47-.38.81-.44.34-.06.64,0,.89.17.25.16.41.41.47.75l2.01,11.51ZM87.74,34.49c-1.07.19-2.05-.02-2.95-.62-.98-.66-1.61-1.65-1.88-2.98-.26-1.27-.11-2.47.45-3.59.67-1.33,1.79-2.13,3.35-2.41,1.15-.2,2.15.1,2.99.91.76.72,1.24,1.7,1.46,2.93.23,1.34.08,2.54-.48,3.62-.62,1.2-1.6,1.91-2.95,2.15ZM87,27.2c-.71.12-1.21.54-1.51,1.26-.25.61-.31,1.28-.18,2.01.12.69.41,1.19.87,1.49.36.24.75.32,1.17.25.5-.09.91-.33,1.22-.74.35-.47.48-1.05.39-1.74-.25-1.87-.9-2.72-1.95-2.54ZM103.16,23.42c-.21,2.37-.46,4.53-.75,6.48-.08.55-.27,1.13-.57,1.75-.21.43-.55.68-1.01.76-.73.12-1.42-.49-2.08-1.8-.25-.5-.6-1.46-1.07-2.87-.08.28-.12.46-.14.55-.17.77-.42,1.96-.73,3.56-.05.26-.14.47-.29.65-.18.43-.5.69-.98.79-.27.06-.6-.13-.98-.58-.41-.45-.77-1.05-1.11-1.81-.3-.68-.85-2.19-1.65-4.53-.17-.51-.28-.91-.33-1.2-.06-.32.02-.6.22-.85.21-.26.48-.41.81-.47.62-.11,1.06.13,1.31.73.13.31.26.7.4,1.16.19.67.3,1.06.34,1.18.15.44.4,1.15.73,2.15.22-1.25.46-2.79.71-4.63.11-.79.49-1.24,1.14-1.36.64-.11,1.14.23,1.48,1.03.25.56.53,1.3.86,2.21.48,1.33.76,2.12.86,2.37.02-.19.17-2.02.44-5.5.04-.52.36-.83.95-.93.33-.06.64,0,.92.17.29.17.46.41.52.73.01.06.01.14,0,.26ZM110.54,23.46c-.57.1-.96-.08-1.15-.54-.24,0-.48.02-.72.06-1.39.24-2.05.55-1.99.94.04.23.51.46,1.41.69,1.23.33,2.08.6,2.53.82.94.46,1.48,1.07,1.61,1.83.17.99-.16,1.83-.99,2.5-.67.54-1.55.9-2.64,1.09-.77.13-1.49.14-2.17.01-.92-.17-1.44-.57-1.55-1.2-.1-.58.19-.93.88-1.05.27-.05.66-.03,1.19.05.53.08.93.1,1.2.05,1.17-.2,1.72-.54,1.64-1.02-.05-.29-.51-.55-1.39-.77-1.28-.32-2.11-.56-2.48-.74-.91-.43-1.44-1.05-1.58-1.87-.2-1.16.28-2.05,1.43-2.67.68-.36,1.76-.67,3.23-.93.58-.1,1.02-.1,1.32,0,.42.14.67.47.77,1.02.18,1.04,0,1.61-.57,1.7Z"/>
  <path class="cls-3" d="M336.95,9.74c-.36,2.02-2.64,14.98-3,17M345.45,32.24l12.5-11M353.45,43.74c1.67-.4,12.57-3.03,14.5-3.5"/>
  <path class="cls-4" d="M268.99,368.15c-11.61,3.42-23.55,6.66-35.63,6.82-54.98-1.06-108.04-34.56-139.95-78.2-32.17-43.45-37.01-105.43-9.12-152.23,5.44-9.13,11.92-17.65,18.4-26.04,10.35-13.73,21.65-27.65,34.38-39.49,17.53-16.74,35.78-34.18,58-44.63,16.88-8.03,36.68-11.27,55.07-7.1,19.06,4.22,37.43,17.28,44.07,36.11,4.99,14.72,2.71,30.87-1.18,45.57-2,8.02-4.86,18.27.71,25.08,9.3,9.92,23.68-.19,30.93-8.28,15.13-15.05,25.45-37.2,46.98-44.23,14.56-4.84,30.44.56,38.29,13.67,8.01,13.02,6.75,30.65,1.43,44.49-2.62,6.76-6.06,13.21-9.86,19.36-15.02,24.72-40.77,41.66-54.46,67.34-8.42,14.89-9.33,32.09-10.23,48.79-1.42,42.07-25.95,81.84-67.62,92.9l-.19.06Z"/>
  <path class="cls-1" d="M146.57,125.12c2.53-9.39,13.42-12.45,14.6-.74.26,3.13-.44,6.55-1.91,9.34-2.93,5.67-8.53,7.19-11.32,3.53-2.48-3.29-2.49-8-1.43-11.92l.06-.21Z"/>
  <path class="cls-1" d="M195.44,131.42c-1.17,3.88-1.45,8.9.95,12.09,1.94,2.57,5.58,1.89,7.58-.26,3.95-4.09,5.66-12.98,1.87-17.94-4.22-4.59-9.24,1.32-10.33,5.89l-.07.22Z"/>
  <path class="cls-1" d="M152.08,153.37c-8.38,2.99-1.79,13.83,2.85,17.66,8.72,8,25.16,8.65,34.69,1.42,4.28-3.11,10.45-11.55,3.61-15.02-3.24-1.55-8.83-1.05-13.28-1.01-3.68.04-7.34-.2-10.92-.89-5.74-.94-11.23-3.4-16.79-2.2l-.16.04Z"/>
  <path class="cls-2" d="M239.99,296.74c-2.57,0-4.52-1.24-5.86-3.71-1.6-2.96-3.99-6.46-7.18-10.5-4.95-6.28-7.57-9.62-7.86-10.01-2.6,1.92-4.75,3.39-6.44,4.4-.32,4.52-.49,8.85-.49,12.99,0,1.89-.63,3.45-1.9,4.69-1.27,1.24-2.88,1.86-4.83,1.86-4.59,0-6.89-2.73-6.89-8.2,0-2.57.18-6.41.54-11.52.39-5.14.59-9,.59-11.57,0-4.72.07-10.11.2-16.16.16-6.09.24-11.46.24-16.11,0-1.4-.08-3.04-.24-4.93-.13-1.92-.2-3.58-.2-4.98,0-1.89.64-3.44,1.9-4.64,1.27-1.24,2.88-1.85,4.83-1.85s3.57.62,4.83,1.85c1.27,1.2,1.9,2.75,1.9,4.64,0,1.43.08,3.12.25,5.08.16,1.95.24,3.65.24,5.08,0,3.87-.1,8.46-.29,13.77-.2,5.08-.28,9.6-.24,13.57,4.43-3.42,11.16-9.64,20.21-18.65,1.43-1.43,3.06-2.15,4.88-2.15s3.43.67,4.83,2c1.4,1.33,2.1,2.88,2.1,4.64,0,1.5-.63,2.95-1.9,4.35-3.84,4.3-8.42,8.79-13.72,13.48l10.16,13.09c4.91,6.54,7.37,10.9,7.37,13.09,0,1.79-.72,3.3-2.15,4.54-1.43,1.27-3.06,1.9-4.88,1.9Z"/>
</svg>